<?xml version="1.0" encoding="UTF-8"?>
<svg viewBox="0 0 21.022741 32.742722" xmlns="http://www.w3.org/2000/svg">
 <defs>
  <radialGradient id="a" cx="12.5" cy="2.3351" r="9.9625" gradientTransform="matrix(.99168 .004163 -.004198 .99999 .11387 -.052012)" gradientUnits="userSpaceOnUse">
   <stop stop-color="#fff" offset="0"/>
   <stop stop-color="#004dff" offset="1"/>
  </radialGradient>
 </defs>
 <g transform="matrix(-.84291 .013316 .013316 .84291 7.3877 -854.35)" opacity=".65">
  <path d="m12.5 1013.9c-6.6169 0-11.98 5.3547-11.98 11.962 0 4.7357 2.7733 8.8206 6.771 10.759l5.2085 14.238c1.9367-4.729 3.6869-9.5241 5.4038-14.335 3.8908-1.9764 6.5757-6.0043 6.5757-10.662 0-6.6075-5.3626-11.962-11.98-11.962z" fill="#195fff" stroke="#000"/>
  <path transform="matrix(1.0523 .33431 -.33431 1.0523 3.1907 1009.6)" d="m21.964 11.5c0 5.227-4.2373 9.4643-9.4643 9.4643s-9.4643-4.2373-9.4643-9.4643 4.2373-9.4643 9.4643-9.4643 9.4643 4.2373 9.4643 9.4643z" fill="url(#a)"/>
 </g>
</svg>
